<svg id="图层_1" data-name="图层 1" xmlns="http://www.w3.org/2000/svg" viewBox="0 0 422.97 432.88">
  <defs>
    <style>.cls-1{fill:#f3ff3f;}.cls-2{fill:none;stroke:#231815;stroke-linecap:round;stroke-miterlimit:10;}</style>
  </defs>
  <title>moon</title>
  <path class="cls-1" d="M665.06,275.81l-9.47.9-2.86-30.12,13.57-1.29A220.9,220.9,0,0,1,665.06,275.81Z"
        transform="translate(-243.92 -43.25)"/>
  <path class="cls-1"
        d="M655.59,276.71l9.47-.9A223.23,223.23,0,0,1,615,394.2c-79,95.53-220.42,108.94-315.93,30a223.15,223.15,0,0,1-54.6-66.5c88.71,37.73,195.18,14.7,259.73-63.38,60.22-72.85,66.51-172.5,23.46-250.54A224.7,224.7,0,0,1,666.3,245.31l-13.57,1.29Z"
        transform="translate(-243.92 -43.25)"/>
  <path class="cls-2" d="M527.61,43.75c43.05,78,36.77,177.69-23.46,250.54-64.55,78.08-171,101.11-259.73,63.38"
        transform="translate(-243.92 -43.25)"/>
  <path class="cls-2"
        d="M527.61,43.75A224.7,224.7,0,0,1,666.3,245.31a220.9,220.9,0,0,1-1.24,30.5A223.23,223.23,0,0,1,615,394.2c-79,95.53-220.42,108.94-315.93,30a223.15,223.15,0,0,1-54.6-66.5"
        transform="translate(-243.92 -43.25)"/>
</svg>
